<?xml version="1.0" standalone="no"?>
<!DOCTYPE svg PUBLIC "-//W3C//DTD SVG 20010904//EN"
 "http://www.w3.org/TR/2001/REC-SVG-20010904/DTD/svg10.dtd">
<svg version="1.0" xmlns="http://www.w3.org/2000/svg"
 width="512.000000pt" height="512.000000pt" viewBox="0 0 512.000000 512.000000"
 preserveAspectRatio="xMidYMid meet">
<metadata>
Created by potrace 1.11, written by Peter Selinger 2001-2013
</metadata>
<g transform="translate(0.000000,512.000000) scale(0.100000,-0.100000)"
fill="#000000" stroke="none">
<path d="M0 2560 l0 -2560 265 0 265 0 0 1875 0 1875 408 0 408 0 584 -676
c322 -371 592 -684 600 -694 14 -18 52 24 615 675 l600 694 413 0 412 1 0
-1875 0 -1875 275 0 275 0 0 2560 0 2560 -2560 0 -2560 0 0 -2560z"/>
<path d="M1460 1165 l0 -1165 1085 0 1085 0 0 1168 -1 1167 -27 -30 c-15 -17
-243 -281 -506 -588 l-479 -557 -71 0 -71 1 -500 584 c-275 321 -503 584 -507
584 -5 1 -8 -523 -8 -1164z"/>
</g>
</svg>
