<?xml version="1.0" encoding="UTF-8" standalone="no"?>
<svg width="15px" height="15px" viewBox="0 0 15 15" version="1.1" xmlns="http://www.w3.org/2000/svg" xmlns:xlink="http://www.w3.org/1999/xlink" xmlns:sketch="http://www.bohemiancoding.com/sketch/ns">
    <title>豆瓣读书</title>
    <desc>豆瓣读书</desc>
    <defs></defs>
    <g id="Page-1" stroke="none" stroke-width="1" fill="none" fill-rule="evenodd" sketch:type="MSPage">
        <path d="M0,14.53125 L0,13.125 L3.75,13.125 L2.62875,9.4096875 L1.28578125,9.4096875 L1.40625,2.8125 L13.59375,2.8125 L13.59375,9.375 L12.2751563,9.4096875 L11.25,13.125 L14.9610937,12.9801563 L15,14.53125 L0,14.53125 L0,14.53125 Z M6.09375,13.125 L8.90625,13.125 L10.1990625,9.4096875 L4.82671875,9.4096875 L6.09375,13.125 L6.09375,13.125 Z M11.25,4.6875 L3.84140625,4.655625 L3.75,7.5 L11.25,7.5 L11.25,4.6875 L11.25,4.6875 Z M0.46875,0 L14.53125,0 L14.53125,1.40625 L0.46875,1.40625 L0.46875,0 L0.46875,0 Z" id="Shape" fill="#000000" sketch:type="MSShapeGroup"></path>
    </g>
</svg>
