<?xml version="1.0" encoding="UTF-8" standalone="no"?>
<svg width="16px" height="16px" viewBox="0 0 16 16" version="1.1" xmlns="http://www.w3.org/2000/svg" xmlns:xlink="http://www.w3.org/1999/xlink" xmlns:sketch="http://www.bohemiancoding.com/sketch/ns">
    <title>GitHub</title>
    <desc>GitHub</desc>
    <defs></defs>
    <g id="Page-1" stroke="none" stroke-width="1" fill="none" fill-rule="evenodd" sketch:type="MSPage">
        <path d="M7.76,0 C3.475,0 0,3.474 0,7.761 C0,11.189 2.223,14.098 5.307,15.124 C5.695,15.195 5.837,14.956 5.837,14.75 C5.837,14.566 5.83,14.078 5.827,13.43 C3.668,13.899 3.213,12.39 3.213,12.39 C2.86,11.494 2.351,11.255 2.351,11.255 C1.646,10.774 2.404,10.783 2.404,10.783 C3.183,10.838 3.593,11.583 3.593,11.583 C4.285,12.769 5.409,12.426 5.851,12.228 C5.922,11.726 6.122,11.385 6.344,11.191 C4.621,10.994 2.81,10.329 2.81,7.355 C2.81,6.508 3.112,5.815 3.609,5.273 C3.529,5.076 3.262,4.287 3.685,3.219 C3.685,3.219 4.337,3.01 5.819,4.015 C6.438,3.842 7.101,3.756 7.761,3.753 C8.42,3.756 9.084,3.842 9.704,4.014 C11.186,3.01 11.836,3.218 11.836,3.218 C12.259,4.286 11.993,5.075 11.913,5.272 C12.41,5.814 12.711,6.507 12.711,7.354 C12.711,10.335 10.897,10.991 9.168,11.183 C9.447,11.423 9.695,11.896 9.695,12.62 C9.695,13.657 9.685,14.494 9.685,14.749 C9.685,14.957 9.825,15.198 10.219,15.122 C13.3,14.094 15.521,11.187 15.521,7.76 C15.521,3.475 12.046,0 7.76,0 L7.76,0 Z" id="Shape" fill="#000000" sketch:type="MSShapeGroup"></path>
    </g>
</svg>
