<?xml version="1.0" encoding="UTF-8" standalone="no"?>
<svg width="16px" height="16px" viewBox="0 0 16 16" version="1.1" xmlns="http://www.w3.org/2000/svg" xmlns:xlink="http://www.w3.org/1999/xlink" xmlns:sketch="http://www.bohemiancoding.com/sketch/ns">
    <title>Segmentfault</title>
    <desc>Segmentfault</desc>
    <defs></defs>
    <g id="Page-1" stroke="none" stroke-width="1" fill="none" fill-rule="evenodd" sketch:type="MSPage">
        <g id="sf" sketch:type="MSLayerGroup" fill="#000000">
            <path d="M0.835692332,11.898667 C1.4724103,12.4557952 2.34789751,12.9731286 3.22338471,12.9731286 C3.86010268,12.9731286 4.53661552,12.6945645 4.53661552,11.9384619 C4.53661552,11.1027696 3.58153857,10.9833849 2.507077,10.5058465 C1.27343593,9.98851312 0.278564111,9.31200027 0.278564111,7.7997951 C0.278564111,5.77025658 1.9101539,4.93456425 3.93969242,4.93456425 C5.05394887,4.93456425 6.20800018,5.17333349 7.04369252,5.73046171 L7.04369252,5.96923095 L6.24779506,7.52123099 C5.69066683,7.12328226 4.93456425,6.84471815 4.13866679,6.84471815 C3.42235908,6.84471815 2.9448206,7.12328226 2.9448206,7.72020536 C2.9448206,8.47630794 3.8203078,8.63548743 4.89476938,9.03343616 C6.36717967,9.59056439 7.28246175,10.2272824 7.28246175,11.8190773 C7.28246175,13.8884107 5.65087196,14.8036927 3.50194882,14.8036927 C2.14892314,14.8036927 1.0346667,14.4455389 0,13.6496414 L0,13.4108722 L0.835692332,11.898667 L0.835692332,11.898667 Z" id="Shape" sketch:type="MSShapeGroup"></path>
            <path d="M10.1874875,14.4853338 C10.1874875,14.2863594 10.2272824,8.95384642 10.2272824,7.12328226 L8.99364129,7.12328226 L8.99364129,5.13353861 L10.1874875,5.13353861 C10.1874875,5.05394887 10.1476926,3.42235908 10.1476926,3.3825642 C10.1476926,1.15405132 11.4609234,0.358153857 13.1323081,0.358153857 C13.8486158,0.358153857 14.6047184,0.477538476 15.360821,0.795897459 L15.360821,1.07446157 L14.8036927,2.62646162 C14.4853338,2.46728212 14.1271799,2.34789751 13.8088209,2.34789751 C13.2516927,2.34789751 12.8935388,2.62646162 12.8935388,3.66112831 L12.8935388,5.13353861 L14.7638979,5.13353861 L14.7638979,7.12328226 L12.8935388,7.12328226 C12.9333337,8.95384642 12.9333337,14.2863594 12.9333337,14.4853338 L10.1874875,14.4853338 L10.1874875,14.4853338 Z" id="Shape" sketch:type="MSShapeGroup"></path>
        </g>
    </g>
</svg>
