<?xml version="1.0" encoding="UTF-8" standalone="no"?>
<svg width="15px" height="13px" viewBox="0 0 15 13" version="1.1" xmlns="http://www.w3.org/2000/svg" xmlns:xlink="http://www.w3.org/1999/xlink">
    <title>V2EX</title>
    <desc>V2EX</desc>
    <defs></defs>
    <g id="Page-1" stroke="none" stroke-width="1" fill="none" fill-rule="evenodd" sketch:type="MSPage">
        <path d="M8.69547402,0 L0.54323257,0 C0.24346952,0 8.8817842e-16,0.238273925 8.8817842e-16,0.532363985 L8.8817842e-16,4.21763608 L7.64513056,4.21763608 C7.80415978,4.21763608 7.95615232,4.28142595 8.06498647,4.3949344 L9.83917091,6.23311454 C9.8790455,6.27439033 9.8790455,6.3381802 9.83964002,6.379456 L8.06545559,8.23545978 C7.95615232,8.34990631 7.83605945,8.44371494 7.676092,8.44371494 L8.8817842e-16,8.44371494 L8.8817842e-16,12.1332084 C8.8817842e-16,12.4272985 0.24346952,12.6660415 0.54323257,12.6660415 L8.69359757,12.6660415 C8.87326775,12.6660415 9.04543213,12.596154 9.17256169,12.4713885 L14.6790072,7.06894944 C15.1082454,6.64821773 15.106838,5.96575994 14.6757234,5.54643535 L9.17209258,0.192307695 C9.04543213,0.0689493443 8.87420598,0 8.69547402,0 L8.69547402,0 Z" id="Shape" fill="#000000" sketch:type="MSShapeGroup"></path>
    </g>
</svg>
