<?xml version="1.0" encoding="UTF-8" standalone="no"?>
<svg width="16px" height="13px" viewBox="0 0 16 13" version="1.1" xmlns="http://www.w3.org/2000/svg" xmlns:xlink="http://www.w3.org/1999/xlink">
    <title>Weibo</title>
    <desc>Weibo</desc>
    <defs></defs>
    <g id="Page-1" stroke="none" stroke-width="1" fill="none" fill-rule="evenodd" sketch:type="MSPage">
        <g id="weibo" sketch:type="MSLayerGroup" fill="#000000">
            <path d="M11.6233603,6.06384018 C11.4056003,5.99872018 11.2558403,5.95392018 11.3702403,5.66800017 C11.6171203,5.04592015 11.6424003,4.50992013 11.3745603,4.12720012 C10.8723203,3.4099201 9.49792028,3.4484801 7.92272023,4.10800012 C7.92272023,4.10704012 7.42816022,4.32464013 7.55456022,3.93184012 C7.79696023,3.15296009 7.76032023,2.50064007 7.38336022,2.12384006 C6.52880019,1.26848004 4.25616013,2.15616006 2.30672007,4.10448012 C0.847520025,5.56432016 0,7.11136021 0,8.44896025 C0,11.0076803 3.2814401,12.5633604 6.49152019,12.5633604 C10.6995203,12.5633604 13.4985604,10.1184003 13.4985604,8.17744024 C13.4987204,7.00464021 12.5108804,6.33904019 11.6233603,6.06384018 L11.6233603,6.06384018 Z M6.50000019,11.6464003 C3.93872012,11.8990404 1.72752005,10.7417603 1.56112005,9.05968027 C1.39488004,7.37824022 3.3371201,5.80992017 5.89792017,5.55680016 C8.45968025,5.30320016 10.6710403,6.46096019 10.8369603,8.14224024 C11.0032003,9.82448029 9.06160027,11.3931203 6.50000019,11.6464003 L6.50000019,11.6464003 Z" id="Shape" sketch:type="MSShapeGroup"></path>
            <path d="M14.4174404,1.38128004 L14.4174404,1.38128004 C13.4014404,0.254720008 11.9024004,-0.174720005 10.5190403,0.119360004 L10.5185603,0.119360004 C10.1987203,0.187680006 9.99440029,0.502720015 10.0630403,0.822560024 C10.1312003,1.14224003 10.4460803,1.34656004 10.7662403,1.27840004 C11.7502403,1.06928003 12.8156804,1.37520004 13.5380804,2.17536006 C14.2598404,2.97552009 14.4558404,4.06688012 14.1467204,5.02384015 L14.1468804,5.02432015 C14.0460804,5.33616016 14.2166404,5.66960017 14.5288004,5.77024017 C14.8396804,5.87088017 15.1736004,5.70032017 15.2744005,5.38976016 C15.2744005,5.38928016 15.2744005,5.38816016 15.2745605,5.38736016 C15.7084805,4.04080012 15.4342405,2.50672007 14.4174404,1.38128004 L14.4174404,1.38128004 Z" id="Shape" sketch:type="MSShapeGroup"></path>
            <path d="M10.9580803,2.17600006 C10.6824003,2.23440007 10.5067203,2.50592007 10.5662403,2.78160008 C10.6249603,3.05616009 10.8961603,3.2324801 11.1705603,3.17264009 L11.1705603,3.17312009 C11.5003203,3.10320009 11.8574403,3.20496009 12.0995204,3.4726401 C12.3416004,3.74128011 12.4067204,4.10672012 12.3028804,4.42736013 L12.3032004,4.42736013 C12.2169604,4.69520014 12.3632004,4.98288015 12.6313604,5.06992015 C12.8996804,5.15568015 13.1872004,5.00944015 13.2736004,4.74096014 C13.4852804,4.08496012 13.3531204,3.3379201 12.8572804,2.78960008 C12.3622404,2.24096007 11.6321603,2.03280006 10.9580803,2.17600006 L10.9580803,2.17600006 Z" id="Shape" sketch:type="MSShapeGroup"></path>
            <path id="Shape" sketch:type="MSShapeGroup" d="M12.8568004,2.78960008 L12.8568004,2.78960008 L12.8568004,2.79060008 L12.8568004,2.78960008 Z"></path>
            <path d="M6.7560002,6.8508802 C5.53728016,6.53360019 4.15936012,7.14096021 3.63008011,8.21520024 C3.09104009,9.31056027 3.61216011,10.5262403 4.84352014,10.9241603 C6.11936018,11.3353603 7.62272022,10.7049603 8.14560024,9.52272028 C8.66128026,8.36672025 8.01744024,7.17680021 6.7560002,6.8508802 L6.7560002,6.8508802 Z M5.82528017,9.64832028 C5.57744016,10.0435203 5.04720015,10.2166403 4.64736014,10.0340803 C4.25360013,9.85504029 4.13728012,9.39568028 4.38528013,9.01040027 C4.62992014,8.62672025 5.14240015,8.45552025 5.53936016,8.62176025 C5.94016018,8.79296026 6.06864018,9.24880027 5.82528017,9.64832028 L5.82528017,9.64832028 Z M6.6414402,8.60032025 C6.55184019,8.75376026 6.35376019,8.82736026 6.19856018,8.76368026 C6.04592018,8.70080026 5.99808018,8.52960025 6.08480018,8.37904025 C6.17408018,8.22928024 6.36448019,8.15616024 6.51664019,8.21648024 C6.6715202,8.27312024 6.7268802,8.44656025 6.6414402,8.60032025 L6.6414402,8.60032025 Z" id="Shape" sketch:type="MSShapeGroup"></path>
        </g>
    </g>
</svg>
