<?xml version="1.0" encoding="UTF-8" standalone="no"?>
<svg width="16px" height="16px" viewBox="0 0 16 16" version="1.1" xmlns="http://www.w3.org/2000/svg" xmlns:xlink="http://www.w3.org/1999/xlink" xmlns:sketch="http://www.bohemiancoding.com/sketch/ns">
    <title>Zhihu</title>
    <desc>Zhihu</desc>
    <defs></defs>
    <g id="Page-1" stroke="none" stroke-width="1" fill="none" fill-rule="evenodd" sketch:type="MSPage">
        <path d="M8.59692308,1.85969231 L8.59692308,12.8258462 L9.77846154,12.8258462 L10.1550769,14.1464615 C10.1550769,14.1464615 11.9667692,12.8258462 12.2843077,12.8258462 L14.7803077,12.8258462 L14.7803077,1.85969231 L8.59692308,1.85969231 L8.59692308,1.85969231 Z M13.5236923,11.6356923 L12.1156923,11.6356923 L10.688,12.5501538 L10.4541538,11.6393846 L9.85107692,11.6369231 L9.85107692,3.04861538 L13.5236923,3.04861538 L13.5236923,11.6356923 L13.5236923,11.6356923 Z M7.936,8.06646154 C7.936,8.06646154 7.92984615,6.87753846 7.552,6.87753846 L4.91446154,6.87753846 C5.00061538,5.51138462 5.02523077,4.27815385 5.02523077,3.17538462 L7.60615385,3.17538462 C7.60615385,3.17538462 7.70461538,2.03815385 7.17292308,2.05169231 L2.71138462,2.05169231 C2.88738462,1.38707692 3.10769231,0.706461538 3.37230769,0 C3.37230769,0 2.15876923,0 1.74523077,1.088 C1.57292308,1.53723077 1.08061538,3.26276923 0.198153846,5.02646154 C0.496,4.99446154 1.47815385,4.96738462 2.05661538,3.90646154 C2.16246154,3.61107692 2.18338462,3.57046154 2.31507692,3.17415385 L3.76984615,3.17415385 C3.76984615,3.70338462 3.77723077,4.43446154 3.73292308,5.31569231 C3.73292308,6.15507692 3.70830769,6.54646154 3.68369231,6.87876923 L1.04984615,6.87876923 C0.456615385,6.87876923 0.264615385,8.06769231 0.264615385,8.06769231 L3.56923077,8.06769231 C3.34769231,10.5809231 2.15876923,12.6756923 0,14.3495385 C0.352,14.7015385 2.10953846,14.3372308 2.57230769,13.8732308 C2.57230769,13.8732308 3.72923077,12.8209231 4.36430769,10.3827692 C5.20123077,11.3513846 5.90646154,12.2116923 6.48123077,12.96 C6.74461538,13.3132308 7.07569231,13.6861538 7.07569231,13.6861538 C7.07569231,13.6861538 7.48184615,12.2990769 7.02153846,11.6393846 C6.64,11.1901538 5.59753846,9.96553846 5.15692308,9.52246154 L4.43076923,10.1181538 C4.65230769,9.41415385 4.78276923,8.72984615 4.82707692,8.06769231 L7.93476923,8.06769231 L7.936,8.06646154 L7.936,8.06646154 Z" id="Imported-Layers" fill="#474747" sketch:type="MSShapeGroup"></path>
    </g>
</svg>
